<?xml version="1.0" encoding="iso-8859-1"?>
<!-- Generator: Adobe Illustrator 16.0.0, SVG Export Plug-In . SVG Version: 6.00 Build 0)  -->
<!DOCTYPE svg PUBLIC "-//W3C//DTD SVG 1.1//EN" "http://www.w3.org/Graphics/SVG/1.1/DTD/svg11.dtd">
<svg version="1.1" id="Capa_1" xmlns="http://www.w3.org/2000/svg" xmlns:xlink="http://www.w3.org/1999/xlink" x="0px" y="0px"
	 width="612.01px" height="612.009px" viewBox="0 0 612.01 612.009" style="enable-background:new 0 0 612.01 612.009;"
	 xml:space="preserve">
<g>
	<path d="M574.98,467.683H37.007c-24.034,0-32.296-11.355-35.09-18.146c-2.794-6.761-4.987-20.669,12.017-37.613l251.337-251.307
		c21.721-21.721,59.755-21.721,81.476,0l251.337,251.307c16.975,16.944,14.812,30.854,12.018,37.613
		C607.276,456.328,599.015,467.683,574.98,467.683z M31.659,437.25c1.322,0.21,3.124,0.391,5.348,0.391h537.975
		c2.253,0,4.025-0.18,5.348-0.391c-0.781-1.112-1.923-2.494-3.515-4.086L325.477,181.857c-10.335-10.335-28.661-10.335-38.995,0
		L35.174,433.165C33.582,434.756,32.439,436.138,31.659,437.25z"/>
</g>
<g>
</g>
<g>
</g>
<g>
</g>
<g>
</g>
<g>
</g>
<g>
</g>
<g>
</g>
<g>
</g>
<g>
</g>
<g>
</g>
<g>
</g>
<g>
</g>
<g>
</g>
<g>
</g>
<g>
</g>
</svg>
